<?xml version="1.0" encoding="utf-8"?><svg viewBox="0 0 251 63" xmlns="http://www.w3.org/2000/svg" xmlns:xlink="http://www.w3.org/1999/xlink"><style>:root>svg{display:none}:root>svg:target{display:block}</style><svg viewBox="0 0 7 12" id="arrow-right" xmlns="http://www.w3.org/2000/svg"><path d="M1 1l5 5-5 5"/></svg><svg viewBox="0 0 22 22" id="icon-call" xmlns="http://www.w3.org/2000/svg"><path d="M7.947 10.726a7.249 7.249 0 003.356 3.341.682.682 0 00.673-.05l2.152-1.435a.689.689 0 01.652-.06l4.025 1.725a.686.686 0 01.412.713 4.126 4.126 0 01-4.092 3.602A11.688 11.688 0 013.437 6.876 4.126 4.126 0 017.04 2.783a.685.685 0 01.713.412L9.48 7.224a.687.687 0 01-.057.647l-1.43 2.184a.682.682 0 00-.046.671z"/></svg><svg viewBox="0 0 62 62" id="icon-certificate" xmlns="http://www.w3.org/2000/svg"><path opacity=".58" d="M0 0h62v62H0z"/><path d="M55.387 10.05a1.136 1.136 0 11-2.272 0V3.634c0-.71-.577-1.286-1.286-1.286H3.633c-.71 0-1.286.577-1.286 1.286v54.735c0 .71.577 1.286 1.286 1.286h48.196c.709 0 1.286-.577 1.286-1.286v-3.39a1.136 1.136 0 112.272 0v3.39a3.562 3.562 0 01-3.558 3.558H3.633a3.562 3.562 0 01-3.558-3.558V3.633A3.562 3.562 0 013.633.075h48.196a3.562 3.562 0 013.558 3.558v6.418z"/><path d="M8.234 8.16h-.075V32.332a1.136 1.136 0 11-2.272 0V7.023c0-.627.508-1.135 1.136-1.135h41.416c.627 0 1.136.508 1.136 1.136v3.148a1.136 1.136 0 11-2.272 0V8.159H8.234zM47.228 53.841h.075v-1.528a1.136 1.136 0 112.272 0v2.664c0 .628-.509 1.136-1.136 1.136H7.023a1.136 1.136 0 01-1.136-1.136V41.475a1.136 1.136 0 112.272 0v12.366h39.069z"/><path d="M33.37 45.234l.052.053.053-.053 2.393-2.394a1.136 1.136 0 111.607 1.607l-2.403 2.403a2.327 2.327 0 01-1.65.682 2.326 2.326 0 01-1.65-.682l-1.488-1.488-.053-.053-.053.053-.959.959a1.136 1.136 0 01-1.606-1.607l.968-.968c.91-.91 2.39-.91 3.3 0l1.488 1.488zM42.507 15.736a3.454 3.454 0 00-2.598 1.006 3.455 3.455 0 00-1.006 2.598c.02.458-.228.89-.635 1.1l-.035-.067.035.066a3.455 3.455 0 00-1.747 2.17l-.073-.019.073.02c-.12.446-.146.907-.084 1.357l.011.085H15.231a1.136 1.136 0 100 2.272h21.86l-.04.102c-.027.07-.06.14-.103.207m5.559-10.897L38.755 32.21c.053.139.08.288.072.441a3.53 3.53 0 001.028 2.655c.7.699 1.667 1.074 2.655 1.028m-.003-20.6a1.18 1.18 0 001.1-.634 3.456 3.456 0 012.17-1.747 3.455 3.455 0 012.753.428c.385.247.883.247 1.269 0a3.455 3.455 0 012.753-.428c.935.25 1.726.887 2.17 1.747.21.407.64.657 1.1.635a3.453 3.453 0 012.598 1.006 3.456 3.456 0 011.006 2.598c-.021.458.228.89.635 1.1a3.455 3.455 0 011.747 2.17c.25.935.095 1.938-.428 2.753a1.178 1.178 0 000 1.27c.523.814.678 1.818.428 2.753a3.455 3.455 0 01-1.747 2.17 1.18 1.18 0 00-.635 1.1 3.45 3.45 0 01-3.604 3.604 1.18 1.18 0 00-1.1.635c-.142.275-.32.527-.527.751l-.02.022V49.007a1.136 1.136 0 01-1.937.805l-3.02-3.005-.054-.053m-6.657-31.018l6.657 31.018M36.948 26.633l-.063-.04.063.04zm0 0a3.456 3.456 0 00-.427 2.753c.034.128.076.253.125.376l.04.102H15.232a1.136 1.136 0 100 2.272h23.576l.018.049c.056.147.085.307.077.47a3.452 3.452 0 003.604 3.604m0 0l.004.076m-.004-.075c.458-.023.89.228 1.1.635.142.275.32.527.527.751l.02.022V49.007c0 .459.276.873.7 1.049l-.029.069M42.506 36.26l.004.075m0 0l2.314 13.79m0 0l.03-.07c.423.177.91.08 1.236-.243l3.021-3.005.053-.053m-4.34 3.37l4.34-3.37m2.611-.607l.128.127V38.75l-.078.003h-.007a3.455 3.455 0 01-2.02-.54 1.179 1.179 0 00-1.268 0 3.456 3.456 0 01-2.026.541l-.079-.003v7.523l.128-.127 1.81-1.8c.443-.441 1.16-.441 1.602 0l1.81 1.8zm.17-9.772l.019.072c.323-.086.587-.298.74-.596a3.457 3.457 0 013.223-1.86c.335.015.65-.107.886-.344l-.053-.053.054.053c.236-.236.358-.551.343-.886a3.457 3.457 0 011.86-3.223c.298-.154.51-.417.596-.74a1.163 1.163 0 00-.145-.94 3.457 3.457 0 010-3.721c.18-.282.232-.616.145-.939a1.163 1.163 0 00-.595-.74l-.035.066.035-.066a3.457 3.457 0 01-1.861-3.223 1.164 1.164 0 00-.343-.887 1.164 1.164 0 00-.886-.343 3.457 3.457 0 01-3.224-1.86l-.066.034.066-.035a1.164 1.164 0 00-.74-.595 1.164 1.164 0 00-.94.145l.041.063-.04-.063a3.457 3.457 0 01-3.722 0 1.164 1.164 0 00-.939-.146l.02.073-.02-.072a1.164 1.164 0 00-.74.595 3.456 3.456 0 01-3.223 1.861 1.165 1.165 0 00-.886.343 1.163 1.163 0 00-.343.887 3.458 3.458 0 01-1.861 3.223c-.297.153-.51.417-.596.74l.072.02-.072-.02c-.087.323-.035.657.146.94a3.457 3.457 0 010 3.72c-.181.282-.233.616-.146.94.086.323.298.586.596.74.325.168.615.386.865.64l.002.002.055.056v.001c.63.67.982 1.578.938 2.524-.015.334.107.65.344.886.236.237.552.359.886.344a3.456 3.456 0 013.223 1.86c.154.298.417.51.74.596l.02-.072-.02.072c.323.087.658.035.94-.146l-.041-.063.04.063a3.447 3.447 0 011.861-.543c.648 0 1.296.181 1.861.543.282.181.616.233.939.146l-.02-.072z"/><path d="M49.138 26.776l.053.053.053-.053 4.02-4.02a1.136 1.136 0 111.606 1.607l-4.876 4.876a1.132 1.132 0 01-1.606 0l-2.456-2.456a1.136 1.136 0 011.606-1.607l1.6 1.6zM22.828 35.677h13.844a1.136 1.136 0 110 2.272H22.828a1.136 1.136 0 110-2.272z"/></svg><svg viewBox="0 0 62 63" id="icon-design" xmlns="http://www.w3.org/2000/svg"><path opacity=".58" d="M0 0h62v62H0z"/><path d="M39.676 62.093a24.501 24.501 0 0017.75-7.525 2.71 2.71 0 00.677-2.607 2.654 2.654 0 00-1.849-1.883 10.18 10.18 0 01-7.373-9.987c.11-5.512 4.664-9.966 10.17-9.966h.078l.1.001a2.713 2.713 0 002.358-1.279 2.667 2.667 0 00.118-2.645 24.7 24.7 0 00-22.029-13.515 24.703 24.703 0 100 49.406zm-16.109-40.82a22.787 22.787 0 0136.41 5.808.741.741 0 01-.033.739.775.775 0 01-.682.368l-.118-.001h-.091c-6.557 0-11.98 5.304-12.109 11.866a12.12 12.12 0 008.78 11.888.728.728 0 01.508.521.789.789 0 01-.197.758 22.773 22.773 0 01-37.315-7.022 22.776 22.776 0 014.847-24.925zM2.906 16.216v5.096c0 .076.01.152.028.225C.904 32.892.273 40.28 1.827 53.395a124.77 124.77 0 001.178 7.81.968.968 0 00.953.794h5.529a.968.968 0 00.953-.794c.474-2.584.87-5.212 1.178-7.81 1.626-13.72.987-21.322-.962-32.168v-5.01a6.776 6.776 0 002.906-5.56c0-.136-.025-3.334-2.22-5.53-1.48-1.479-.742-3.832-.736-3.852A.969.969 0 009.58.006C4.644.556 2.293 3.439 1.191 5.76A12.615 12.615 0 000 10.656a6.777 6.777 0 002.906 5.56zm6.788 36.95a122.91 122.91 0 01-1.017 6.896h-3.91a122.721 122.721 0 01-1.016-6.895C2.244 40.452 2.833 33.214 4.769 22.28h4.107c1.814 10.28 2.379 17.71.818 30.886zM8.72 20.345H4.844v-3.19a6.762 6.762 0 003.875 0v3.19zM2.94 6.59c1.116-2.35 2.981-3.84 5.554-4.44-.09 1.221.093 2.964 1.476 4.346 1.607 1.607 1.653 4.1 1.654 4.161a4.85 4.85 0 01-4.44 4.824c-.923-1.034-1.343-2.005-1.244-2.89.142-1.283 1.35-2.08 1.362-2.088L6.264 8.868c-.08.051-1.987 1.277-2.246 3.484a4.67 4.67 0 00.46 2.564 4.846 4.846 0 01-2.54-4.258A10.677 10.677 0 012.94 6.591z"/><path d="M45.53 27.218a3.875 3.875 0 100-7.749 3.875 3.875 0 000 7.75zm0-5.812a1.937 1.937 0 110 3.875 1.937 1.937 0 010-3.875zM32.937 28.187a3.875 3.875 0 100-7.75 3.875 3.875 0 000 7.75zm0-5.812a1.937 1.937 0 110 3.874 1.937 1.937 0 010-3.874zM29.062 33.03a3.875 3.875 0 10-7.75.001 3.875 3.875 0 007.75 0zm-5.812 0a1.937 1.937 0 113.874 0 1.937 1.937 0 01-3.874 0zM27.125 47.562a3.875 3.875 0 100-7.751 3.875 3.875 0 000 7.75zm0-5.813a1.937 1.937 0 110 3.875 1.937 1.937 0 010-3.875zM34.874 47.562a3.875 3.875 0 100 7.75 3.875 3.875 0 000-7.75zm0 5.812a1.937 1.937 0 110-3.874 1.937 1.937 0 010 3.874zM41.656 53.374a3.875 3.875 0 107.75 0 3.875 3.875 0 00-7.75 0zm5.812 0a1.937 1.937 0 11-3.875 0 1.937 1.937 0 013.875 0zM33.906 35.937a5.813 5.813 0 105.812-5.812 5.82 5.82 0 00-5.812 5.812zm5.812-3.875a3.875 3.875 0 110 7.75 3.875 3.875 0 010-7.75zM16.322 8.44l2.78 1.521 1.52 2.78a.969.969 0 001.7 0l1.52-2.78 2.779-1.52a.969.969 0 000-1.7l-2.78-1.52-1.52-2.78a.968.968 0 00-1.7 0l-1.52 2.78-2.78 1.52a.968.968 0 000 1.7zm3.958-1.655a.968.968 0 00.385-.385l.806-1.475.807 1.475a.968.968 0 00.385.385l1.474.806-1.474.806a.968.968 0 00-.385.385l-.807 1.475-.806-1.475a.969.969 0 00-.385-.385l-1.474-.806 1.474-.806z"/></svg><svg viewBox="0 0 62 62" id="icon-development" xmlns="http://www.w3.org/2000/svg"><path opacity=".58" d="M0 0h62v62H0z"/><path d="M57.867 8.267v2.066c1.141 0 2.066.926 2.066 2.067v31H2.067v-31c0-1.141.925-2.067 2.066-2.067V8.267A4.134 4.134 0 000 12.4v35.133a4.134 4.134 0 004.133 4.134h20.311l-2.48 8.266h-2.33V62h22.733v-2.067h-2.331l-2.48-8.266h20.31A4.134 4.134 0 0062 47.533V12.4a4.134 4.134 0 00-4.133-4.133zm-19.99 51.666H24.123l2.48-8.266h8.796l2.48 8.266zm22.056-12.4a2.067 2.067 0 01-2.066 2.067H4.133a2.067 2.067 0 01-2.066-2.067v-2.066h57.866v2.066z"/><path d="M8.267 4.133c0-1.141.925-2.066 2.066-2.066h41.334c1.141 0 2.066.925 2.066 2.066v37.2H55.8v-37.2A4.134 4.134 0 0051.667 0H10.333A4.134 4.134 0 006.2 4.133v37.2h2.067v-37.2z"/><path d="M16.17 34.035l16.534 6.2c.011 0 .025 0 .036.006.105.037.215.057.327.059.142-.003.283-.036.413-.096.017-.007.036 0 .053-.013l12.4-6.2c.349-.176.568-.534.567-.924v-12.4a.99.99 0 00-.027-.207v-.035a1.043 1.043 0 00-.178-.366c-.008-.01-.009-.025-.017-.036L38.011 9.69a1.033 1.033 0 00-1.269-.28L16.076 19.744c-.352.173-.575.53-.576.923v12.4c0 .43.267.816.67.968zm6.607.207v-6.057l2.066.775v6.06l-2.066-.778zm21.656-1.814L34.1 37.595v-10.09l10.333-5.166v10.089zM36.915 11.63l6.946 8.68-10.51 5.255-6.945-8.68 10.509-5.255zm-19.348 9.674l6.948-3.474 7.518 9.398v10.547l-5.123-1.92v-7.612c0-.43-.267-.816-.67-.967l-4.134-1.55a1.033 1.033 0 00-1.396.967v6.836l-3.143-1.18V21.306zM10.333 37.2v3.1c0 .57.463 1.033 1.034 1.033h3.1v-2.066H12.4V37.2h-2.067zM14.467 8.267h-3.1c-.571 0-1.034.462-1.034 1.033v3.1H12.4v-2.067h2.067V8.267zM49.6 39.267h-2.067v2.066h3.1c.571 0 1.034-.462 1.034-1.033v-3.1H49.6v2.067zM51.667 9.3c0-.57-.463-1.033-1.034-1.033h-3.1v2.066H49.6V12.4h2.067V9.3z"/></svg><svg viewBox="0 0 62 62" id="icon-frendly" xmlns="http://www.w3.org/2000/svg"><path opacity=".58" d="M0 0h62v62H0z"/><path d="M51.563 34.008a1.044 1.044 0 00-1.473 0l-1.22 1.22-1.042-1.042v-4.219a9.934 9.934 0 00-9.934-9.933h-.052l-1.957-1.957a11.023 11.023 0 00-7.41-3.243l-1.704-1.704 1.22-1.22a1.041 1.041 0 000-1.473L17.679.124l-1.473 1.472 9.577 9.576-14.733 14.733-9.576-9.576L0 17.802l10.313 10.313a1.043 1.043 0 001.473 0l1.01-1.011 1.696 1.695v4.778a3.124 3.124 0 004.167 2.945v1.221a3.122 3.122 0 004.167 2.946v1.221a3.124 3.124 0 004.167 2.946v1.221a3.123 3.123 0 005.452 2.084h1.409l1.042 1.041-1.012 1.012a1.041 1.041 0 000 1.473L44.198 62l1.472-1.474-9.576-9.576 14.733-14.733 9.576 9.576 1.473-1.473-10.313-10.312zm-21.445 13.11a1.043 1.043 0 01-1.041-1.041v-8.334h-2.084v4.167a1.042 1.042 0 01-2.083 0v-8.334h-2.084v4.167a1.042 1.042 0 01-2.083 0v-7.292h-2.084v3.125a1.042 1.042 0 01-2.083 0v-5.209a1.042 1.042 0 00-.305-.736l-2-2 11.027-11.028 2 2a1.041 1.041 0 00.737.305 8.958 8.958 0 016.376 2.641l.484.484H24.91a1.042 1.042 0 00-1.042 1.042 7.878 7.878 0 005.793 7.584l1.499.409v17.009a1.043 1.043 0 01-1.042 1.042zm4.904-.736a1.04 1.04 0 00-.737-.305h-1.041v-16.44l2.083.568v.246a5.214 5.214 0 005.209 5.209 1.041 1.041 0 100-2.084 3.129 3.129 0 01-3.126-3.125v-1.042a1.042 1.042 0 00-.768-1.005l-6.434-1.755a5.793 5.793 0 01-4.161-4.532h11.848a7.85 7.85 0 017.85 7.85v4.65c0 .277.11.542.305.737l1.347 1.347L36.369 47.73l-1.347-1.347z"/><path d="M7.439 27.085H5.355v32.294a1.042 1.042 0 001.042 1.041H37.65v-2.083H7.44V27.085zM55.359 35.419h2.083V1.042A1.042 1.042 0 0056.4 0H22.023v2.083H55.36V35.42z"/><path d="M47.025 5.209a5.209 5.209 0 100 10.417 5.209 5.209 0 000-10.417zm0 8.334a3.125 3.125 0 110-6.251 3.125 3.125 0 010 6.25zM1.188 32.294h2.084v20.834H1.188V32.294zM59.526 5.209h2.083v22.918h-2.084V5.209z"/></svg><svg viewBox="0 0 251 34" id="icon-logo" xmlns="http://www.w3.org/2000/svg"><path d="M142.806 33.097c-.914 0-1.671-.301-2.273-.903-.602-.613-.892-1.36-.892-2.262 0-.903.29-1.66.892-2.262.602-.602 1.359-.903 2.273-.903.546 0 1.059.123 1.527.39.468.256.836.602 1.103 1.048l-1.348.769a1.24 1.24 0 00-.513-.502 1.513 1.513 0 00-.769-.19c-.49 0-.88.145-1.181.457-.29.301-.446.703-.446 1.193 0 .49.156.891.446 1.192.301.301.691.457 1.181.457.279 0 .535-.067.769-.19.223-.122.401-.3.513-.512l1.348.78a2.849 2.849 0 01-1.103 1.048c-.468.256-.97.39-1.527.39zm19.869-.914c-.613.602-1.37.914-2.262.914a3.095 3.095 0 01-2.251-.914c-.624-.613-.925-1.36-.925-2.251 0-.892.301-1.638.925-2.251.613-.613 1.36-.914 2.251-.914.892 0 1.649.301 2.262.914s.925 1.36.925 2.25c0 .892-.312 1.639-.925 2.252zm-3.432-1.07c.312.312.702.468 1.17.468.468 0 .858-.156 1.17-.468.312-.312.468-.702.468-1.181 0-.48-.156-.88-.468-1.181-.312-.312-.702-.468-1.17-.468-.468 0-.858.156-1.17.468-.312.3-.468.702-.468 1.18 0 .48.156.87.468 1.182zm22.889-4.223v6.073h-1.538v-3.265l-1.482 2.43h-.156l-1.46-2.419v3.254h-1.56V26.89h1.56l1.538 2.596 1.56-2.596h1.538zm14.944 0c.613 0 1.125.2 1.549.601.412.402.624.914.624 1.527 0 .624-.212 1.126-.624 1.527-.424.401-.936.602-1.549.602h-.803v1.816h-1.56V26.89h2.363zm0 2.774a.555.555 0 00.434-.178.629.629 0 00.179-.468.629.629 0 00-.179-.468.594.594 0 00-.434-.178h-.803v1.293h.803zm17.618 3.299l-.301-.87h-2.061l-.257.87h-1.682l1.927-6.073h1.962l2.006 6.073h-1.594zm-1.961-2.207h1.225l-.624-2.072-.601 2.072zm18.966-3.866h1.538v6.073h-1.192l-2.14-3.053v3.053h-1.549V26.89h1.204l2.139 3.053V26.89zm19.301 0l-2.05 3.744v2.329h-1.549v-2.318l-2.051-3.755h1.739l1.081 2.25 1.08-2.25H251z"/><path fill-rule="evenodd" clip-rule="evenodd" d="M174.042.067l16.782 18.777h-6.363L167.679.067h6.363zM192.752.067l16.782 18.777h-6.351L186.4.067h6.352zM211.518.067L228.3 18.844h-6.363L205.155.067h6.363zM240.636 12.425l5.728 6.419h-5.115l-5.739-6.419-4.134-4.558h12.849c.913 0 1.671-.746 1.671-1.66 0-.903-.758-1.66-1.671-1.66h-15.457L224.211 0h20.014c3.421 0 6.218 2.797 6.218 6.207 0 3.421-2.797 6.218-6.218 6.218h-3.589zM0 .067H30.333v4.546H17.44v14.23h-4.547V4.614H0V.067zm53.478 0H68.21c4.893 0 8.893 4 8.893 8.881v1.003c0 4.892-4 8.893-8.893 8.893H53.48c-4.893 0-8.893-4-8.893-8.893V8.948c0-4.88 4-8.881 8.892-8.881zm0 4.546H68.21a4.347 4.347 0 014.335 4.335v1.003a4.347 4.347 0 01-4.335 4.335H53.48a4.347 4.347 0 01-4.335-4.335V8.948a4.347 4.347 0 014.334-4.335zM98.722.067v10.085l.089-.1L114.423.067h8.146L110.021 7.9l15.546 10.943h-8.235l-11.723-8.19-6.887 4.3v3.89h-4.558V.067h4.558zM154.607.1l17.162 18.744H150.44l4.546-4.558h6.441l-6.775-7.41-10.932 11.968h-5.884L154.607.1z"/></svg><svg viewBox="0 0 12 16" id="icon-play" xmlns="http://www.w3.org/2000/svg"><path d="M10.41 6.53a2 2 0 010 2.94L4.107 15.29C2.827 16.474.75 15.566.75 13.822V2.178C.75.434 2.826-.474 4.107.708l6.303 5.823z"/></svg><svg viewBox="0 0 54 56" id="icon-quotes" xmlns="http://www.w3.org/2000/svg"><path d="M53.536 22.059C52.216 14.97 48.214 8.82 42.269 4.742 36.323.663 29.146-.856 22.06.464c-7.09 1.32-13.24 5.322-17.318 11.268C.663 17.677-.856 24.856.464 31.945a26.814 26.814 0 003.574 9.26c-.401 3.948-1.247 7.552-3.89 12.093a1.079 1.079 0 00.742 1.604c1.236.223 2.58.33 3.979.33 4.338 0 9.198-1.03 12.97-2.836a26.934 26.934 0 0014.103 1.144c7.088-1.32 13.239-5.322 17.317-11.267 4.078-5.946 5.597-13.125 4.277-20.214zm-21.99 29.36c-4.5.838-9.128.422-13.382-1.203a1.08 1.08 0 00-.872.045C13.2 52.33 7.357 53.397 2.79 52.98c2.45-4.67 3.107-8.49 3.433-11.937.022-.239-.035-.48-.165-.682a24.666 24.666 0 01-3.472-8.812C.078 18.086 8.991 5.092 22.453 2.585c6.52-1.214 13.125.183 18.595 3.936a24.675 24.675 0 0110.367 15.933c2.507 13.464-6.406 26.458-19.868 28.965z"/><path d="M20.941 37.26h3.455c.596 0 1.08-.483 1.08-1.078v-4.676c0-.596-.484-1.079-1.08-1.079h-3.455a.695.695 0 01-.685-.685V27.72h2.523a2.7 2.7 0 002.696-2.696V19.44a2.7 2.7 0 00-2.696-2.696h-6.66a2.7 2.7 0 00-2.696 2.696v10.302c0 4.146 3.373 7.518 7.518 7.518zm-5.36-17.82c0-.292.246-.539.538-.539h6.66c.292 0 .539.247.539.539v5.584a.546.546 0 01-.54.538h-3.601c-.596 0-1.08.483-1.08 1.08v3.1a2.846 2.846 0 002.844 2.843h2.377v2.518H20.94a5.367 5.367 0 01-5.36-5.361V19.44zM37.881 27.72a2.7 2.7 0 002.696-2.696V19.44a2.7 2.7 0 00-2.696-2.696h-6.66a2.7 2.7 0 00-2.699 2.696v10.302c0 4.146 3.374 7.518 7.521 7.518H39.5c.595 0 1.078-.483 1.078-1.078v-4.676c0-.596-.483-1.079-1.078-1.079h-3.456a.696.696 0 01-.688-.685V27.72h2.526zm-1.838 4.865h2.377v2.518h-2.377a5.368 5.368 0 01-5.364-5.361V19.44c0-.292.249-.539.542-.539h6.66c.292 0 .539.247.539.54v5.583a.546.546 0 01-.54.538h-3.604c-.596 0-1.079.484-1.079 1.08v3.1a2.848 2.848 0 002.846 2.843zM12.31 13.388c.275 0 .551-.106.762-.316l.003-.003a1.077 1.077 0 00-.002-1.524 1.08 1.08 0 00-1.527 1.527c.211.21.487.316.763.316z"/><path d="M29.434 5.282A21.944 21.944 0 0015.572 8.37a1.079 1.079 0 101.13 1.838c7.787-4.788 17.749-3.61 24.226 2.865 7.68 7.681 7.68 20.18 0 27.86-7.681 7.679-20.177 7.679-27.856 0-6.474-6.474-7.653-16.438-2.868-24.23a1.08 1.08 0 00-1.838-1.129A21.964 21.964 0 005.28 29.437c.554 4.973 2.721 9.476 6.266 13.02 4.26 4.261 9.855 6.391 15.453 6.39 5.595 0 11.194-2.13 15.455-6.39a21.715 21.715 0 006.402-15.455 21.715 21.715 0 00-6.403-15.455 21.919 21.919 0 00-13.02-6.265z"/></svg><svg viewBox="0 0 18 12" id="icon-swiperArrow" xmlns="http://www.w3.org/2000/svg"><path d="M.47 6.53a.75.75 0 010-1.06L5.243.697a.75.75 0 011.06 1.06L2.061 6l4.242 4.243a.75.75 0 01-1.06 1.06L.47 6.53zM18 6.75H1v-1.5h17v1.5z"/></svg><svg viewBox="0 0 12 10" id="icon-telegram" xmlns="http://www.w3.org/2000/svg"><path fill-rule="evenodd" clip-rule="evenodd" d="M9.102 9.824c.679.297.933-.325.933-.325L11.831.476c-.014-.609-.834-.24-.834-.24L.941 4.18s-.48.17-.438.467c.042.297.424.438.424.438l2.532.849s.763 2.503.919 2.984c.141.467.269.481.269.481.141.057.268-.042.268-.042l1.641-1.485 2.546 1.951zm.438-7.75s.354-.212.34 0c0 0 .056.028-.128.226-.17.17-4.172 3.762-4.71 4.243a.149.149 0 00-.07.127L4.816 8c-.028.141-.212.155-.254.028L3.897 5.85a.208.208 0 01.085-.24L9.54 2.074z"/></svg><svg viewBox="0 0 12 13" id="icon-viber" xmlns="http://www.w3.org/2000/svg"><path d="M10.646 1.234C10.332.946 9.06.022 6.23.009c0 0-3.338-.202-4.965 1.29C.359 2.207.04 3.53.007 5.175-.026 6.816-.069 9.896 2.9 10.731h.002L2.9 12.004s-.018.516.321.62c.41.127.653-.266 1.045-.688.215-.233.511-.572.737-.833 2.029.17 3.59-.22 3.767-.278.41-.134 2.731-.43 3.108-3.51.39-3.168-.19-5.175-1.232-6.081zm.344 5.858c-.32 2.571-2.2 2.733-2.546 2.845-.147.048-1.518.39-3.244.275 0 0-1.286 1.552-1.685 1.954-.064.063-.137.088-.185.076-.069-.018-.089-.099-.086-.218l.01-2.118c-.003 0-.003 0 0 0C.74 9.21.888 6.59.916 5.217c.028-1.371.286-2.498 1.052-3.254C3.342.718 6.18.903 6.18.903c2.394.01 3.54.73 3.806.971.883.76 1.334 2.569 1.005 5.218z"/><path d="M7.397 5.265a.16.16 0 01-.16-.152c-.028-.544-.283-.81-.805-.837a.161.161 0 01.018-.322c.688.038 1.073.433 1.108 1.142a.157.157 0 01-.151.167l-.01.002z"/><path d="M8.216 5.539h-.002a.16.16 0 01-.157-.165c.012-.547-.144-.99-.478-1.354-.332-.364-.79-.562-1.395-.605a.16.16 0 01-.147-.172.16.16 0 01.173-.146c.683.05 1.222.288 1.606.708.388.423.575.952.562 1.577a.162.162 0 01-.162.157z"/><path d="M9.057 5.867a.159.159 0 01-.16-.159c-.008-.98-.288-1.726-.86-2.285-.565-.552-1.28-.833-2.123-.84a.16.16 0 010-.322c.928.008 1.718.32 2.343.932.627.612.949 1.457.959 2.51a.158.158 0 01-.16.164c.003 0 .003 0 0 0zM6.47 7.247s.226.02.347-.13l.235-.296c.114-.146.39-.24.658-.09.15.083.42.25.587.374.18.131.544.435.547.438.175.146.215.361.096.592v.005a2.468 2.468 0 01-.49.605l-.006.002c-.17.142-.336.223-.498.24-.02.006-.043.006-.074.006a.69.69 0 01-.212-.033l-.005-.008c-.253-.07-.674-.248-1.372-.635a8.144 8.144 0 01-1.154-.762 5.91 5.91 0 01-.519-.46l-.017-.018-.018-.018-.018-.017-.017-.018a6.354 6.354 0 01-.461-.519 8.001 8.001 0 01-.762-1.154c-.387-.7-.564-1.12-.635-1.371l-.007-.005a.69.69 0 01-.033-.213c0-.03 0-.053.005-.073.02-.165.1-.33.24-.499 0-.002.003-.002.003-.005.187-.207.39-.37.604-.49H3.5c.228-.12.443-.08.593.095 0 0 .306.367.437.547.124.17.291.438.375.587.15.268.056.544-.091.658l-.296.235c-.15.122-.13.347-.13.347s.438 1.665 2.083 2.083z"/></svg><svg viewBox="0 0 13 13" id="icon-whatsapp" xmlns="http://www.w3.org/2000/svg"><path d="M10.7 2.318A6.136 6.136 0 006.323.5C2.859.5.076 3.295.11 6.696c0 1.077.305 2.12.814 3.064l-.882 3.198 3.293-.841c.916.505 1.934.74 2.953.74 3.428 0 6.212-2.794 6.212-6.195 0-1.65-.645-3.199-1.8-4.344zm-4.378 9.495a5.075 5.075 0 01-2.614-.707l-.204-.1-1.969.505.51-1.92-.136-.202C.415 7 1.128 3.833 3.572 2.352c2.444-1.482 5.601-.775 7.095 1.65 1.494 2.424.78 5.556-1.663 7.037a4.98 4.98 0 01-2.682.774zm2.987-3.737l-.373-.168s-.543-.236-.883-.404c-.034 0-.068-.034-.102-.034a.494.494 0 00-.237.067s-.034.034-.51.573a.187.187 0 01-.17.1h-.033a.258.258 0 01-.136-.067l-.17-.067c-.373-.168-.713-.37-.984-.64-.068-.067-.17-.134-.238-.202a3.766 3.766 0 01-.645-.808l-.034-.067c-.034-.034-.034-.068-.068-.135 0-.067 0-.135.034-.168 0 0 .136-.169.238-.27.068-.067.102-.168.17-.235.068-.101.101-.236.068-.337-.034-.168-.442-1.078-.544-1.28a.393.393 0 00-.237-.168H4.08c-.068 0-.135.034-.203.034l-.034.033c-.068.034-.136.101-.204.135-.068.067-.102.135-.17.202a1.708 1.708 0 00-.373 1.044c0 .27.068.539.17.774l.034.101c.305.64.712 1.213 1.256 1.718l.135.134c.102.101.204.169.272.27a6.082 6.082 0 002.444 1.28c.102.033.238.033.34.067h.339c.17 0 .373-.068.51-.135.101-.067.169-.067.237-.135l.068-.067c.068-.068.136-.101.203-.169a.894.894 0 00.17-.202c.068-.134.102-.303.136-.471v-.236s-.034-.033-.102-.067z"/></svg></svg>