<?xml version="1.0" encoding="utf-8"?><svg viewBox="0 0 251 34" xmlns="http://www.w3.org/2000/svg" xmlns:xlink="http://www.w3.org/1999/xlink"><style>:root>svg{display:none}:root>svg:target{display:block}</style><svg viewBox="0 0 251 34" id="icon-logo" xmlns="http://www.w3.org/2000/svg"><path d="M142.806 33.097c-.914 0-1.671-.301-2.273-.903-.602-.613-.892-1.36-.892-2.262 0-.903.29-1.66.892-2.262.602-.602 1.359-.903 2.273-.903.546 0 1.059.123 1.527.39.468.256.836.602 1.103 1.048l-1.348.769a1.24 1.24 0 00-.513-.502 1.513 1.513 0 00-.769-.19c-.49 0-.88.145-1.181.457-.29.301-.446.703-.446 1.193 0 .49.156.891.446 1.192.301.301.691.457 1.181.457.279 0 .535-.067.769-.19.223-.122.401-.3.513-.512l1.348.78a2.849 2.849 0 01-1.103 1.048c-.468.256-.97.39-1.527.39zm19.869-.914c-.613.602-1.37.914-2.262.914a3.095 3.095 0 01-2.251-.914c-.624-.613-.925-1.36-.925-2.251 0-.892.301-1.638.925-2.251.613-.613 1.36-.914 2.251-.914.892 0 1.649.301 2.262.914s.925 1.36.925 2.25c0 .892-.312 1.639-.925 2.252zm-3.432-1.07c.312.312.702.468 1.17.468.468 0 .858-.156 1.17-.468.312-.312.468-.702.468-1.181 0-.48-.156-.88-.468-1.181-.312-.312-.702-.468-1.17-.468-.468 0-.858.156-1.17.468-.312.3-.468.702-.468 1.18 0 .48.156.87.468 1.182zm22.889-4.223v6.073h-1.538v-3.265l-1.482 2.43h-.156l-1.46-2.419v3.254h-1.56V26.89h1.56l1.538 2.596 1.56-2.596h1.538zm14.944 0c.613 0 1.125.2 1.549.601.412.402.624.914.624 1.527 0 .624-.212 1.126-.624 1.527-.424.401-.936.602-1.549.602h-.803v1.816h-1.56V26.89h2.363zm0 2.774a.555.555 0 00.434-.178.629.629 0 00.179-.468.629.629 0 00-.179-.468.594.594 0 00-.434-.178h-.803v1.293h.803zm17.618 3.299l-.301-.87h-2.061l-.257.87h-1.682l1.927-6.073h1.962l2.006 6.073h-1.594zm-1.961-2.207h1.225l-.624-2.072-.601 2.072zm18.966-3.866h1.538v6.073h-1.192l-2.14-3.053v3.053h-1.549V26.89h1.204l2.139 3.053V26.89zm19.301 0l-2.05 3.744v2.329h-1.549v-2.318l-2.051-3.755h1.739l1.081 2.25 1.08-2.25H251z"/><path fill-rule="evenodd" clip-rule="evenodd" d="M174.042.067l16.782 18.777h-6.363L167.679.067h6.363zM192.752.067l16.782 18.777h-6.351L186.4.067h6.352zM211.518.067L228.3 18.844h-6.363L205.155.067h6.363zM240.636 12.425l5.728 6.419h-5.115l-5.739-6.419-4.134-4.558h12.849c.913 0 1.671-.746 1.671-1.66 0-.903-.758-1.66-1.671-1.66h-15.457L224.211 0h20.014c3.421 0 6.218 2.797 6.218 6.207 0 3.421-2.797 6.218-6.218 6.218h-3.589zM0 .067H30.333v4.546H17.44v14.23h-4.547V4.614H0V.067zm53.478 0H68.21c4.893 0 8.893 4 8.893 8.881v1.003c0 4.892-4 8.893-8.893 8.893H53.48c-4.893 0-8.893-4-8.893-8.893V8.948c0-4.88 4-8.881 8.892-8.881zm0 4.546H68.21a4.347 4.347 0 014.335 4.335v1.003a4.347 4.347 0 01-4.335 4.335H53.48a4.347 4.347 0 01-4.335-4.335V8.948a4.347 4.347 0 014.334-4.335zM98.722.067v10.085l.089-.1L114.423.067h8.146L110.021 7.9l15.546 10.943h-8.235l-11.723-8.19-6.887 4.3v3.89h-4.558V.067h4.558zM154.607.1l17.162 18.744H150.44l4.546-4.558h6.441l-6.775-7.41-10.932 11.968h-5.884L154.607.1z"/></svg><svg viewBox="0 0 12 10" id="icon-telegram" xmlns="http://www.w3.org/2000/svg"><path fill-rule="evenodd" clip-rule="evenodd" d="M9.102 9.824c.679.297.933-.325.933-.325L11.831.476c-.014-.609-.834-.24-.834-.24L.941 4.18s-.48.17-.438.467c.042.297.424.438.424.438l2.532.849s.763 2.503.919 2.984c.141.467.269.481.269.481.141.057.268-.042.268-.042l1.641-1.485 2.546 1.951zm.438-7.75s.354-.212.34 0c0 0 .056.028-.128.226-.17.17-4.172 3.762-4.71 4.243a.149.149 0 00-.07.127L4.816 8c-.028.141-.212.155-.254.028L3.897 5.85a.208.208 0 01.085-.24L9.54 2.074z"/></svg><svg viewBox="0 0 12 13" id="icon-viber" xmlns="http://www.w3.org/2000/svg"><path d="M10.646 1.234C10.332.946 9.06.022 6.23.009c0 0-3.338-.202-4.965 1.29C.359 2.207.04 3.53.007 5.175-.026 6.816-.069 9.896 2.9 10.731h.002L2.9 12.004s-.018.516.321.62c.41.127.653-.266 1.045-.688.215-.233.511-.572.737-.833 2.029.17 3.59-.22 3.767-.278.41-.134 2.731-.43 3.108-3.51.39-3.168-.19-5.175-1.232-6.081zm.344 5.858c-.32 2.571-2.2 2.733-2.546 2.845-.147.048-1.518.39-3.244.275 0 0-1.286 1.552-1.685 1.954-.064.063-.137.088-.185.076-.069-.018-.089-.099-.086-.218l.01-2.118c-.003 0-.003 0 0 0C.74 9.21.888 6.59.916 5.217c.028-1.371.286-2.498 1.052-3.254C3.342.718 6.18.903 6.18.903c2.394.01 3.54.73 3.806.971.883.76 1.334 2.569 1.005 5.218z"/><path d="M7.397 5.265a.16.16 0 01-.16-.152c-.028-.544-.283-.81-.805-.837a.161.161 0 01.018-.322c.688.038 1.073.433 1.108 1.142a.157.157 0 01-.151.167l-.01.002z"/><path d="M8.216 5.539h-.002a.16.16 0 01-.157-.165c.012-.547-.144-.99-.478-1.354-.332-.364-.79-.562-1.395-.605a.16.16 0 01-.147-.172.16.16 0 01.173-.146c.683.05 1.222.288 1.606.708.388.423.575.952.562 1.577a.162.162 0 01-.162.157z"/><path d="M9.057 5.867a.159.159 0 01-.16-.159c-.008-.98-.288-1.726-.86-2.285-.565-.552-1.28-.833-2.123-.84a.16.16 0 010-.322c.928.008 1.718.32 2.343.932.627.612.949 1.457.959 2.51a.158.158 0 01-.16.164c.003 0 .003 0 0 0zM6.47 7.247s.226.02.347-.13l.235-.296c.114-.146.39-.24.658-.09.15.083.42.25.587.374.18.131.544.435.547.438.175.146.215.361.096.592v.005a2.468 2.468 0 01-.49.605l-.006.002c-.17.142-.336.223-.498.24-.02.006-.043.006-.074.006a.69.69 0 01-.212-.033l-.005-.008c-.253-.07-.674-.248-1.372-.635a8.144 8.144 0 01-1.154-.762 5.91 5.91 0 01-.519-.46l-.017-.018-.018-.018-.018-.017-.017-.018a6.354 6.354 0 01-.461-.519 8.001 8.001 0 01-.762-1.154c-.387-.7-.564-1.12-.635-1.371l-.007-.005a.69.69 0 01-.033-.213c0-.03 0-.053.005-.073.02-.165.1-.33.24-.499 0-.002.003-.002.003-.005.187-.207.39-.37.604-.49H3.5c.228-.12.443-.08.593.095 0 0 .306.367.437.547.124.17.291.438.375.587.15.268.056.544-.091.658l-.296.235c-.15.122-.13.347-.13.347s.438 1.665 2.083 2.083z"/></svg><svg viewBox="0 0 13 13" id="icon-whatsapp" xmlns="http://www.w3.org/2000/svg"><path d="M10.7 2.318A6.136 6.136 0 006.323.5C2.859.5.076 3.295.11 6.696c0 1.077.305 2.12.814 3.064l-.882 3.198 3.293-.841c.916.505 1.934.74 2.953.74 3.428 0 6.212-2.794 6.212-6.195 0-1.65-.645-3.199-1.8-4.344zm-4.378 9.495a5.075 5.075 0 01-2.614-.707l-.204-.1-1.969.505.51-1.92-.136-.202C.415 7 1.128 3.833 3.572 2.352c2.444-1.482 5.601-.775 7.095 1.65 1.494 2.424.78 5.556-1.663 7.037a4.98 4.98 0 01-2.682.774zm2.987-3.737l-.373-.168s-.543-.236-.883-.404c-.034 0-.068-.034-.102-.034a.494.494 0 00-.237.067s-.034.034-.51.573a.187.187 0 01-.17.1h-.033a.258.258 0 01-.136-.067l-.17-.067c-.373-.168-.713-.37-.984-.64-.068-.067-.17-.134-.238-.202a3.766 3.766 0 01-.645-.808l-.034-.067c-.034-.034-.034-.068-.068-.135 0-.067 0-.135.034-.168 0 0 .136-.169.238-.27.068-.067.102-.168.17-.235.068-.101.101-.236.068-.337-.034-.168-.442-1.078-.544-1.28a.393.393 0 00-.237-.168H4.08c-.068 0-.135.034-.203.034l-.034.033c-.068.034-.136.101-.204.135-.068.067-.102.135-.17.202a1.708 1.708 0 00-.373 1.044c0 .27.068.539.17.774l.034.101c.305.64.712 1.213 1.256 1.718l.135.134c.102.101.204.169.272.27a6.082 6.082 0 002.444 1.28c.102.033.238.033.34.067h.339c.17 0 .373-.068.51-.135.101-.067.169-.067.237-.135l.068-.067c.068-.068.136-.101.203-.169a.894.894 0 00.17-.202c.068-.134.102-.303.136-.471v-.236s-.034-.033-.102-.067z"/></svg></svg>