<svg width="12" height="13" viewBox="0 0 12 13" fill="none" xmlns="http://www.w3.org/2000/svg">
<path d="M10.6456 1.234C10.3318 0.945516 9.0615 0.0218662 6.22982 0.00921344C6.22982 0.00921344 2.89203 -0.19323 1.26489 1.29979C0.358953 2.20573 0.0401039 3.5292 0.00720674 5.17406C-0.0256904 6.81639 -0.0687099 9.89606 2.89962 10.7311H2.90215L2.89962 12.004C2.89962 12.004 2.88191 12.5202 3.221 12.624C3.63095 12.7505 3.87388 12.3583 4.26612 11.9357C4.48121 11.7029 4.77729 11.3638 5.00251 11.1031C7.03201 11.2727 8.59335 10.883 8.77049 10.8248C9.18044 10.6907 11.501 10.3946 11.878 7.3149C12.2677 4.14666 11.6882 2.13993 10.6456 1.234ZM10.9898 7.09222C10.6709 9.66325 8.79074 9.82521 8.44405 9.93655C8.29728 9.98463 6.92572 10.3263 5.19989 10.2124C5.19989 10.2124 3.91437 11.7636 3.51454 12.166C3.45128 12.2292 3.3779 12.2545 3.32981 12.2419C3.26149 12.2242 3.24125 12.1432 3.24378 12.0243C3.24378 11.8522 3.2539 9.90618 3.2539 9.90618C3.25137 9.90618 3.25137 9.90618 3.2539 9.90618C0.741065 9.21028 0.887837 6.58864 0.915673 5.21708C0.943509 3.84552 1.20162 2.71943 1.96838 1.9628C3.34247 0.717767 6.17921 0.902497 6.17921 0.902497C8.57311 0.912619 9.71945 1.63382 9.98515 1.87423C10.8683 2.63339 11.3188 4.44273 10.9898 7.09222Z" fill="white"/>
<path d="M7.39651 5.26517C7.313 5.26517 7.24215 5.19937 7.23708 5.11333C7.20925 4.56927 6.95366 4.30356 6.43237 4.27572C6.3438 4.27066 6.27548 4.19474 6.28054 4.10618C6.2856 4.01761 6.36152 3.94928 6.45008 3.95434C7.13839 3.9923 7.52304 4.38707 7.55846 5.09562C7.56352 5.18419 7.4952 5.2601 7.40663 5.26264C7.40157 5.26517 7.39904 5.26517 7.39651 5.26517Z" fill="white"/>
<path d="M8.21626 5.53852H8.21373C8.12516 5.53599 8.05431 5.4626 8.05684 5.37403C8.06949 4.82743 7.9126 4.38459 7.57856 4.02019C7.24706 3.65579 6.78903 3.45841 6.18423 3.41539C6.09566 3.4078 6.02987 3.33188 6.03746 3.24331C6.04505 3.15474 6.12097 3.08895 6.20954 3.09654C6.89279 3.14715 7.43179 3.38502 7.81644 3.80509C8.20361 4.22769 8.39087 4.75658 8.37822 5.38162C8.37569 5.47019 8.3023 5.53852 8.21626 5.53852Z" fill="white"/>
<path d="M9.05651 5.86742C8.96795 5.86742 8.89709 5.79656 8.89709 5.70799C8.8895 4.72867 8.60861 3.98216 8.0367 3.42291C7.47239 2.87125 6.75625 2.59036 5.91357 2.58277C5.82501 2.58277 5.75415 2.50938 5.75415 2.42081C5.75415 2.33224 5.82754 2.26139 5.91357 2.26139C6.84229 2.26898 7.63182 2.58024 8.25686 3.19263C8.88444 3.80502 9.20582 4.65022 9.21594 5.70293C9.21847 5.79403 9.14761 5.86742 9.05651 5.86742C9.05905 5.86742 9.05905 5.86742 9.05651 5.86742Z" fill="white"/>
<path d="M6.47032 7.24655C6.47032 7.24655 6.69554 7.26679 6.817 7.11749L7.05235 6.82142C7.16622 6.67464 7.44205 6.58101 7.71029 6.73032C7.85959 6.81382 8.13036 6.98084 8.29737 7.10484C8.47704 7.23643 8.84144 7.54009 8.84397 7.54262C9.01858 7.68939 9.05907 7.90449 8.94013 8.13477C8.94013 8.13477 8.94013 8.1373 8.94013 8.13983C8.81867 8.35493 8.65418 8.55737 8.44921 8.74463C8.44668 8.74463 8.44668 8.74716 8.44415 8.74716C8.2746 8.88887 8.10758 8.96985 7.94563 8.98756C7.92538 8.99263 7.90261 8.99263 7.87224 8.99263C7.80139 8.99263 7.73053 8.9825 7.65968 8.95973L7.65461 8.95214C7.40156 8.88128 6.98149 8.70414 6.28306 8.31697C5.82756 8.06645 5.45051 7.81086 5.12913 7.55527C4.95958 7.42116 4.78751 7.27185 4.61037 7.09472C4.60531 7.08965 4.59771 7.08206 4.59265 7.077C4.58759 7.07194 4.58 7.06435 4.57494 7.05929C4.56988 7.05423 4.56229 7.04663 4.55723 7.04157C4.55216 7.03651 4.54457 7.02892 4.53951 7.02386C4.3649 6.84672 4.21307 6.67464 4.07895 6.5051C3.82337 6.18625 3.56778 5.80667 3.31726 5.35117C2.93008 4.65021 2.75295 4.23014 2.68209 3.97961L2.6745 3.97455C2.65172 3.9037 2.6416 3.83284 2.6416 3.76198C2.6416 3.73162 2.6416 3.70884 2.64666 3.6886C2.66691 3.52411 2.74788 3.35963 2.88706 3.19008C2.88706 3.18755 2.8896 3.18755 2.8896 3.18502C3.07686 2.97752 3.2793 2.81556 3.4944 2.69409C3.4944 2.69409 3.49693 2.69409 3.49946 2.69409C3.72721 2.57516 3.9423 2.61565 4.09161 2.79025C4.09161 2.79025 4.3978 3.15718 4.52939 3.33685C4.65339 3.5064 4.8204 3.77464 4.90391 3.92394C5.05321 4.19218 4.95958 4.46801 4.81281 4.58188L4.51674 4.81722C4.36743 4.93869 4.38768 5.16391 4.38768 5.16391C4.38768 5.16391 4.82546 6.82901 6.47032 7.24655Z" fill="white"/>
</svg>
