<svg width="13" height="13" viewBox="0 0 13 13" fill="none" xmlns="http://www.w3.org/2000/svg">
<path d="M10.7009 2.31824C9.54674 1.13975 7.95126 0.5 6.32183 0.5C2.8593 0.5 0.0756945 3.29471 0.109641 6.6955C0.109641 7.77297 0.415159 8.81678 0.924355 9.75957L0.041748 12.9583L3.33455 12.1166C4.2511 12.6216 5.2695 12.8573 6.28789 12.8573C9.71647 12.8573 12.5001 10.0626 12.5001 6.66182C12.5001 5.01194 11.8551 3.46306 10.7009 2.31824ZM6.32183 11.8135C5.40528 11.8135 4.48873 11.5778 3.70796 11.1064L3.50428 11.0054L1.53539 11.5105L2.04459 9.59122L1.9088 9.38919C0.415159 6.99854 1.12803 3.83345 3.57217 2.35191C6.01632 0.870383 9.17333 1.57748 10.667 4.0018C12.1606 6.42613 11.4477 9.55754 9.0036 11.0391C8.22283 11.5441 7.27233 11.8135 6.32183 11.8135ZM9.30912 8.07601L8.93571 7.90766C8.93571 7.90766 8.39256 7.67196 8.0531 7.5036C8.01915 7.5036 7.98521 7.46993 7.95126 7.46993C7.84942 7.46993 7.78153 7.5036 7.71364 7.53727C7.71364 7.53727 7.67969 7.57095 7.20444 8.10968C7.17049 8.17703 7.1026 8.2107 7.03471 8.2107H7.00076C6.96682 8.2107 6.89892 8.17703 6.86498 8.14336L6.69524 8.07601C6.32183 7.90766 5.98237 7.70563 5.7108 7.43626C5.64291 7.36892 5.54107 7.30158 5.47317 7.23423C5.23555 6.99854 4.99792 6.72917 4.82819 6.42613L4.79425 6.35878C4.7603 6.32511 4.7603 6.29144 4.72635 6.2241C4.72635 6.15676 4.72635 6.08941 4.7603 6.05574C4.7603 6.05574 4.89608 5.88739 4.99792 5.78637C5.06582 5.71903 5.09976 5.61802 5.16766 5.55068C5.23555 5.44966 5.2695 5.31498 5.23555 5.21396C5.2016 5.04561 4.79425 4.13649 4.69241 3.93446C4.62451 3.83345 4.55662 3.79977 4.45478 3.7661H4.35294C4.28505 3.7661 4.18321 3.7661 4.08137 3.7661C4.01348 3.7661 3.94559 3.79977 3.87769 3.79977L3.84375 3.83345C3.77585 3.86712 3.70796 3.93446 3.64007 3.96813C3.57217 4.03547 3.53823 4.10282 3.47034 4.17016C3.23271 4.4732 3.09693 4.84358 3.09693 5.21396C3.09693 5.48333 3.16482 5.7527 3.26666 5.9884L3.3006 6.08941C3.60612 6.72917 4.01348 7.30158 4.55662 7.80664L4.69241 7.94133C4.79425 8.04234 4.89608 8.10968 4.96398 8.2107C5.67685 8.81678 6.49157 9.2545 7.40812 9.4902C7.50996 9.52387 7.64574 9.52387 7.74758 9.55754C7.84942 9.55754 7.98521 9.55754 8.08705 9.55754C8.25678 9.55754 8.46046 9.4902 8.59624 9.42286C8.69808 9.35552 8.76597 9.35552 8.83387 9.28818L8.90176 9.22083C8.96965 9.15349 9.03755 9.11982 9.10544 9.05248C9.17333 8.98514 9.24123 8.91779 9.27517 8.85045C9.34306 8.71576 9.37701 8.54741 9.41096 8.37905C9.41096 8.31171 9.41096 8.2107 9.41096 8.14336C9.41096 8.14336 9.37701 8.10968 9.30912 8.07601Z" fill="white"/>
</svg>
