<svg width="12" height="10" viewBox="0 0 12 10" fill="none" xmlns="http://www.w3.org/2000/svg">
<path fill-rule="evenodd" clip-rule="evenodd" d="M9.10177 9.82432C9.78065 10.1213 10.0352 9.49903 10.0352 9.49903L11.8314 0.475611C11.8173 -0.13255 10.997 0.235175 10.997 0.235175L0.941093 4.18115C0.941093 4.18115 0.460221 4.35087 0.502651 4.64788C0.545081 4.94489 0.92695 5.08632 0.92695 5.08632L3.4586 5.93492C3.4586 5.93492 4.22234 8.43828 4.37791 8.91915C4.51935 9.38588 4.64664 9.40003 4.64664 9.40003C4.78807 9.4566 4.91536 9.3576 4.91536 9.3576L6.55598 7.87255L9.10177 9.82432ZM9.54024 2.07378C9.54024 2.07378 9.89382 1.86164 9.87968 2.07378C9.87968 2.07378 9.93625 2.10207 9.75239 2.30008C9.58267 2.4698 5.58012 6.06219 5.04267 6.54306C5.00024 6.57135 4.97195 6.61378 4.97195 6.67035L4.81638 7.99982C4.78809 8.14126 4.60423 8.1554 4.5618 8.02811L3.89706 5.85004C3.86878 5.76518 3.89706 5.66618 3.98192 5.60961L9.54024 2.07378Z" fill="white"/>
</svg>
